<?xml version="1.0" encoding="utf-8"?>
<!-- Generator: Adobe Illustrator 28.2.0, SVG Export Plug-In . SVG Version: 6.00 Build 0)  -->
<svg version="1.1" id="Layer_1" xmlns="http://www.w3.org/2000/svg" xmlns:xlink="http://www.w3.org/1999/xlink" x="0px" y="0px"
	 viewBox="0 0 451.09 571.09" style="enable-background:new 0 0 451.09 571.09;" xml:space="preserve">
<style type="text/css">
	.st0{fill:#4CBD94;}
</style>
<path class="st0" d="M147.06,215.84c11.72-0.43,22.83,2.04,32.68,6.76c7.74,3.71,16.99,2.12,23.06-3.95l0,0
	c6.07-6.07,7.66-15.32,3.95-23.06c-4.49-9.37-6.95-19.9-6.8-31c0.5-37.08,30.37-67.55,67.44-68.75
	c40.28-1.31,73.33,31.74,72.02,72.02c-1.2,37.07-31.67,66.93-68.75,67.44c-11.1,0.15-21.63-2.31-31-6.8
	c-7.74-3.71-16.99-2.12-23.06,3.95l0,0c-6.09,6.09-7.64,15.36-3.92,23.13c4.34,9.08,6.78,19.25,6.78,29.97
	c0,10.72-2.43,20.89-6.78,29.97c-3.72,7.77-2.17,17.04,3.92,23.13l0,0c6.07,6.07,15.32,7.66,23.06,3.95c9.37-4.49,19.9-6.95,31-6.8
	c37.08,0.5,67.55,30.37,68.75,67.44c1.31,40.28-31.74,73.33-72.02,72.02c-37.07-1.2-66.93-31.67-67.44-68.75
	c-0.15-11.1,2.31-21.63,6.8-31c3.71-7.74,2.12-16.99-3.95-23.06l0,0c-6.09-6.09-15.36-7.64-23.13-3.92
	c-9.08,4.34-19.25,6.78-29.97,6.78c-39.37,0-71.23-32.79-69.7-72.5C81.4,246.55,110.81,217.19,147.06,215.84z"/>
</svg>
